<svg width="104" height="14" viewBox="0 0 104 14" fill="none" xmlns="http://www.w3.org/2000/svg">
	<path
		d="M46.2184 12.3025C46.0873 12.427 45.9501 12.5436 45.8074 12.652C45.2728 12.2799 44.8044 11.8452 44.4021 11.348L46.6248 9.21793C46.6293 9.22633 46.6339 9.23472 46.6385 9.24309C46.9697 9.82559 47.4072 10.2968 47.9509 10.6566L46.2184 12.3025Z"
		fill="#3A3A3A"/>
	<path
		d="M42.9258 7C42.9258 8.1453 43.1607 9.19468 43.6307 10.1482L46.1468 7.73693C46.1136 7.49958 46.097 7.25393 46.097 7C46.097 6.16206 46.2775 5.41436 46.6385 4.75691C47.0123 4.09945 47.5215 3.59024 48.1661 3.22928C48.8107 2.85543 49.5326 2.66851 50.3318 2.66851C50.3534 2.66851 50.3748 2.66864 50.3963 2.66892C50.5378 2.50531 50.7004 2.33198 50.9001 2.13234C51.6315 1.40086 52.6583 0.956073 53.6741 0.686437C52.6671 0.228812 51.553 0 50.3318 0C48.9267 0 47.6569 0.302947 46.5224 0.90884C45.4009 1.51473 44.5178 2.35267 43.8733 3.42265C43.2416 4.47974 42.9258 5.67219 42.9258 7Z"
		fill="#3A3A3A"/>
	<path
		d="M56.7849 3.44552C56.5248 4.54921 56.0676 5.69987 55.2677 6.49983C54.9993 6.76823 54.7784 6.96969 54.5648 7.14314C54.5446 7.92332 54.3583 8.6233 54.0059 9.24309C53.6449 9.90055 53.1422 10.4162 52.4976 10.7901C51.853 11.151 51.1311 11.3315 50.3318 11.3315C49.9985 11.3315 49.6787 11.3001 49.3723 11.2373L47.1827 13.3175C47.1617 13.3374 47.1406 13.3572 47.1194 13.3767C48.0974 13.7922 49.1682 14 50.3318 14C51.737 14 53.0003 13.6971 54.1219 13.0912C55.2434 12.4853 56.1265 11.6538 56.7711 10.5967C57.4156 9.5267 57.7379 8.32781 57.7379 7C57.7379 5.68176 57.4203 4.49693 56.7849 3.44552Z"
		fill="#3A3A3A"/>
	<path fill-rule="evenodd" clip-rule="evenodd"
		  d="M38.5101 9.41713L40.8678 12.7959L39.8535 13.768H38.1814L35.5709 9.99724H32.6897V13.768H29.5571V0.232044H35.4162C36.6151 0.232044 37.6528 0.431859 38.5295 0.831491C39.419 1.23112 40.1022 1.79834 40.5792 2.53315C41.0562 3.26796 41.2947 4.13812 41.2947 5.14365C41.2947 6.14917 41.0497 7.01934 40.5598 7.75414C40.0829 8.47606 39.3996 9.03039 38.5101 9.41713ZM38.1234 5.14365C38.1234 4.38306 37.8784 3.80295 37.3886 3.40331C36.8987 2.99079 36.1832 2.78453 35.2422 2.78453H32.6897V7.50276H35.2422C36.1832 7.50276 36.8987 7.2965 37.3886 6.88398C37.8784 6.47146 38.1234 5.89134 38.1234 5.14365Z"
		  fill="#3A3A3A"/>
	<path fill-rule="evenodd" clip-rule="evenodd"
		  d="M4.40884 10.8674H10.6934L11.8923 13.768H15.1796L9.12707 0.232044H6.03315L0 13.768H3.20994L4.40884 10.8674ZM7.56077 3.30663L9.70718 8.48895H5.41437L7.56077 3.30663Z"
		  fill="#3A3A3A"/>
	<path
		d="M27.0646 13.768V11.2541H19.6972V8.12155H25.9817V5.68508H19.6972V2.74586H26.8132V0.232044H16.5839V13.768H27.0646Z"
		fill="#3A3A3A"/>
	<path
		d="M65.0231 8.45028L63.2055 10.3453V13.768H60.0922V0.232044H63.2055V6.55525L69.1999 0.232044H72.6806L67.0729 6.26519L73.0093 13.768H69.3546L65.0231 8.45028Z"
		fill="#3A3A3A"/>
	<path fill-rule="evenodd" clip-rule="evenodd"
		  d="M76.661 13.0912C77.7954 13.6971 79.0652 14 80.4704 14C81.8755 14 83.1389 13.6971 84.2604 13.0912C85.382 12.4853 86.265 11.6538 86.9096 10.5967C87.5542 9.5267 87.8765 8.32781 87.8765 7C87.8765 5.67219 87.5542 4.47974 86.9096 3.42265C86.265 2.35267 85.382 1.51473 84.2604 0.90884C83.1389 0.302947 81.8755 0 80.4704 0C79.0652 0 77.7954 0.302947 76.661 0.90884C75.5395 1.51473 74.6564 2.35267 74.0118 3.42265C73.3802 4.47974 73.0643 5.67219 73.0643 7C73.0643 8.32781 73.3802 9.5267 74.0118 10.5967C74.6564 11.6538 75.5395 12.4853 76.661 13.0912ZM82.6361 10.7901C81.9916 11.151 81.2697 11.3315 80.4704 11.3315C79.6711 11.3315 78.9492 11.151 78.3046 10.7901C77.6601 10.4162 77.1509 9.90055 76.777 9.24309C76.4161 8.58564 76.2356 7.83794 76.2356 7C76.2356 6.16206 76.4161 5.41436 76.777 4.75691C77.1509 4.09945 77.6601 3.59024 78.3046 3.22928C78.9492 2.85543 79.6711 2.66851 80.4704 2.66851C81.2697 2.66851 81.9916 2.85543 82.6361 3.22928C83.2807 3.59024 83.7835 4.09945 84.1444 4.75691C84.5183 5.41436 84.7052 6.16206 84.7052 7C84.7052 7.83794 84.5183 8.58564 84.1444 9.24309C83.7835 9.90055 83.2807 10.4162 82.6361 10.7901Z"
		  fill="#3A3A3A"/>
	<path fill-rule="evenodd" clip-rule="evenodd"
		  d="M90.2307 0.232044H96.3799C97.8495 0.232044 99.1451 0.515653 100.267 1.08287C101.401 1.6372 102.278 2.42357 102.896 3.44199C103.528 4.4604 103.844 5.64641 103.844 7C103.844 8.35359 103.528 9.5396 102.896 10.558C102.278 11.5764 101.401 12.3692 100.267 12.9365C99.1451 13.4908 97.8495 13.768 96.3799 13.768H90.2307V0.232044ZM96.2252 11.1961C97.5788 11.1961 98.6552 10.8223 99.4545 10.0746C100.267 9.314 100.673 8.28913 100.673 7C100.673 5.71087 100.267 4.69245 99.4545 3.94475C98.6552 3.18416 97.5788 2.80387 96.2252 2.80387H93.3633V11.1961H96.2252Z"
		  fill="#3A3A3A"/>
	<path
		d="M49.1726 6.77637C49.2009 6.82462 49.2339 6.86642 49.2669 6.89944L50.3828 8.01532C50.4336 8.06608 50.5051 8.11685 50.5889 8.15059L45.7726 12.7261C45.1482 13.3193 44.3198 13.6501 43.4584 13.6501H42L49.1726 6.77637Z"
		fill="#FE4F24"/>
	<path
		d="M49.3733 5.05365C49.9123 4.2778 50.2294 3.77797 50.4605 3.40859C49.5722 3.48715 48.7207 4.5925 48.7207 4.5925L49.307 5.17882C49.3241 5.13547 49.3458 5.09336 49.3733 5.05365Z"
		fill="#FE4F24"/>
	<path
		d="M52.2227 8.09446L52.8086 8.68039C52.8086 8.68039 53.9139 7.82898 53.9925 6.94068C53.6232 7.17174 53.1236 7.48867 52.3475 8.02779C52.3082 8.05504 52.2664 8.07729 52.2227 8.09446Z"
		fill="#FE4F24"/>
	<path
		d="M55.9297 1.47161C55.8841 1.426 55.8221 1.40039 55.7578 1.40039C55.7562 1.40039 55.7546 1.40041 55.753 1.40044C54.9703 1.41579 53.0391 1.56219 52.0136 2.58779C51.548 3.05334 51.3967 3.29568 51.0651 3.82677C50.8262 4.20914 50.4993 4.73288 49.9017 5.59303C49.8345 5.6897 49.8462 5.82056 49.9294 5.90374L51.4973 7.47165C51.5443 7.51871 51.6066 7.54291 51.6694 7.54291C51.7176 7.54291 51.766 7.52863 51.808 7.49944C52.6685 6.90171 53.192 6.57479 53.5743 6.33604C54.1053 6.00442 54.3477 5.85306 54.8133 5.38746C55.8407 4.36004 55.9861 2.4302 56.0008 1.64815C56.0021 1.58211 55.9764 1.51838 55.9297 1.47161ZM54.1141 4.42997C53.7985 4.7456 53.2868 4.7456 52.9711 4.42997C52.6554 4.11431 52.6555 3.60263 52.9712 3.287C53.2868 2.97134 53.7985 2.9713 54.1141 3.28693C54.4297 3.60256 54.4298 4.11436 54.1141 4.42997Z"
		fill="#FE4F24"/>
</svg>
