<svg width="31" height="38" viewBox="0 0 31 38" fill="none" xmlns="http://www.w3.org/2000/svg">
<path d="M15.4999 38C12.7031 35.726 10.1108 33.2331 7.74996 30.5472C4.20713 26.5137 1.95667e-06 20.5067 1.95667e-06 14.7826C-0.00313824 8.80417 3.77367 3.41318 9.56803 1.12522C15.3624 -1.16274 22.0322 0.103324 26.465 4.33261C29.38 7.09888 31.0129 10.8618 30.9999 14.7826C30.9999 20.5067 26.7927 26.5137 23.2499 30.5472C20.8891 33.2331 18.2967 35.726 15.4999 38ZM15.4999 8.45054C13.1267 8.45054 10.9337 9.65742 9.74707 11.6166C8.56044 13.5757 8.56044 15.9894 9.74707 17.9486C10.9337 19.9077 13.1267 21.1146 15.4999 21.1146C19.1687 21.1146 22.1427 18.2796 22.1427 14.7826C22.1427 11.2855 19.1687 8.45054 15.4999 8.45054Z" fill="#F6852A"/>
</svg>
