<?xml version="1.0" encoding="UTF-8"?>
<svg version="1.1" xmlns="http://www.w3.org/2000/svg" xmlns:xlink="http://www.w3.org/1999/xlink">
<defs>

</defs>
<symbol id="i-rectangle" viewBox="0 0 34 1" fill="none" xmlns="http://www.w3.org/2000/svg"><path fill="#4F4F4F" d="M0 0h34v1H0z"/></symbol>
<symbol id="i-vector" viewBox="0 0 14 15" fill="none" xmlns="http://www.w3.org/2000/svg"><path d="M11.803 11.755c.273 1.158.366 2.431.366 3.245h.956c0-.271-.01-.59-.031-.938a15.652 15.652 0 00-.363-2.545c-.149-.627-.351-1.248-.627-1.774-.274-.522-.643-.992-1.141-1.257-.405-.216-.688-.37-.88-.477v-.487a1.88 1.88 0 00.224-.235c.154-.188.305-.43.438-.705a4.79 4.79 0 00.479-2.037C11.224 2.62 9.52 0 6.562 0c-2.958 0-4.66 2.62-4.66 4.545 0 .768.214 1.49.478 2.037.133.275.284.517.438.705.062.077.138.16.224.235v.487a54 54 0 01-.88.477c-.498.265-.866.735-1.14 1.257-.277.526-.48 1.146-.628 1.774a15.66 15.66 0 00-.363 2.546C.01 14.41 0 14.727 0 15h.956c0-.814.093-2.087.366-3.245.137-.578.315-1.109.538-1.533.225-.428.475-.709.737-.848a18.198 18.198 0 001.368-.804l.033-.021V6.867l-.327-.097-.005-.005a.812.812 0 01-.12-.124 2.63 2.63 0 01-.312-.507 3.757 3.757 0 01-.376-1.589C2.858 3.1 4.198.997 6.562.997c2.366 0 3.705 2.102 3.705 3.548 0 .582-.165 1.152-.376 1.589a2.63 2.63 0 01-.312.507.81.81 0 01-.12.124l-.005.005-.327.097v1.456l.003.247s.643.402 1.398.804c.262.14.512.42.737.848.223.424.4.955.537 1.533z" fill="#000"/><path d="M11.803 11.755c.273 1.158.366 2.431.366 3.245h.956c0-.271-.01-.59-.031-.938a15.652 15.652 0 00-.363-2.545c-.149-.627-.351-1.248-.627-1.774-.274-.522-.643-.992-1.141-1.257-.405-.216-.688-.37-.88-.477v-.487a1.88 1.88 0 00.224-.235c.154-.188.305-.43.438-.705a4.79 4.79 0 00.479-2.037C11.224 2.62 9.52 0 6.562 0c-2.958 0-4.66 2.62-4.66 4.545 0 .768.214 1.49.478 2.037.133.275.284.517.438.705.062.077.138.16.224.235v.487a54 54 0 01-.88.477c-.498.265-.866.735-1.14 1.257-.277.526-.48 1.146-.628 1.774a15.66 15.66 0 00-.363 2.546C.01 14.41 0 14.727 0 15h.956c0-.814.093-2.087.366-3.245.137-.578.315-1.109.538-1.533.225-.428.475-.709.737-.848a18.198 18.198 0 001.368-.804l.033-.021V6.867l-.327-.097-.005-.005a.812.812 0 01-.12-.124 2.63 2.63 0 01-.312-.507 3.757 3.757 0 01-.376-1.589C2.858 3.1 4.198.997 6.562.997c2.366 0 3.705 2.102 3.705 3.548 0 .582-.165 1.152-.376 1.589a2.63 2.63 0 01-.312.507.81.81 0 01-.12.124l-.005.005-.327.097v1.456l.003.247s.643.402 1.398.804c.262.14.512.42.737.848.223.424.4.955.537 1.533z" stroke="#fff"/></symbol>
<symbol id="i-cart" viewBox="0 0 13 13" fill="none" xmlns="http://www.w3.org/2000/svg"><path fill-rule="evenodd" clip-rule="evenodd" d="M3.25 4.032V6.03h.813V4.034h4.85V6.03h.832V4.032h2.388v8.178H.867V4.032H3.25zm6.495-.79H13V13H0V3.242h3.25C3.368 1.672 4.79 0 6.4 0c1.627 0 3.186 1.636 3.345 3.243zm-.832 0C8.775 2.086 7.58.79 6.4.79 5.12.79 4.163 2.084 4.062 3.242h4.851z" fill="#000"/></symbol>
<symbol id="i-close-b" viewBox="0 0 25 25" fill="none" xmlns="http://www.w3.org/2000/svg"><path d="M2 2l21 21M2 23L23 2" stroke="#3A3A3A" stroke-width="4"/></symbol>
<symbol id="i-close" viewBox="0 0 43 42" xmlns="http://www.w3.org/2000/svg"><path d="M9.453 11.55l2.1-2.1 21 21-2.1 2.1z"/><path d="M30.453 9.45l2.1 2.1-21 21-2.1-2.1z"/></symbol>
<symbol id="i-flag" viewBox="0 0 11 14" fill="none" xmlns="http://www.w3.org/2000/svg"><path fill-rule="evenodd" clip-rule="evenodd" d="M5.383 10.3l5.382 3.7V0H0v14l5.383-3.7zM.897 12.303l4.486-3.328 4.485 3.328V.88H.898v11.423z" fill="#000"/></symbol>
<symbol id="i-logo" viewBox="0 0 54 24" fill="none" xmlns="http://www.w3.org/2000/svg" xmlns:xlink="http://www.w3.org/1999/xlink"><path fill="url(#pattern0_2_200)" d="M.176 0h53.647v24H.176z"/></symbol>
<symbol id="i-magnifier" viewBox="0 0 14 14" fill="none" xmlns="http://www.w3.org/2000/svg"><path fill-rule="evenodd" clip-rule="evenodd" d="M5.394 0a5.394 5.394 0 013.692 9.325L13.16 13.5l-.673.5-4.049-4.153A5.394 5.394 0 115.394 0zm0 9.958a4.564 4.564 0 100-9.128 4.564 4.564 0 000 9.128z" fill="#000"/></symbol>
</svg>